<?xml version="1.0" encoding="UTF-8"?>
<svg id="Layer_2" data-name="Layer 2" xmlns="http://www.w3.org/2000/svg" xmlns:xlink="http://www.w3.org/1999/xlink" viewBox="0 0 358.5 358">
  <defs>
    <style>
      .cls-1 {
        fill: #7dd8a9;
        stroke-width: 10px;
      }

      .cls-1, .cls-2, .cls-3 {
        stroke: #000;
        stroke-miterlimit: 10;
      }

      .cls-4 {
        fill: #71bc93;
      }

      .cls-5 {
        fill: #9fc;
      }

      .cls-2 {
        fill: url(#radial-gradient);
      }

      .cls-2, .cls-3 {
        stroke-width: 11px;
      }

      .cls-3 {
        fill: none;
      }
    </style>
    <radialGradient id="radial-gradient" cx="-15.22" cy="-39.4" fx="-15.22" fy="-39.4" r="502.41" gradientUnits="userSpaceOnUse">
      <stop offset="0" stop-color="#e3ffee"/>
      <stop offset=".46" stop-color="#c3ffdf"/>
      <stop offset="1" stop-color="#9fc"/>
    </radialGradient>
  </defs>
  <g id="Layer_7" data-name="Layer 7">
    <g>
      <circle class="cls-2" cx="179.5" cy="179" r="173.5"/>
      <polygon class="cls-4" points="88.5 262 118.5 342 168.12 352.5 229.69 344.97 271 326.12 300.79 302.56 315.09 286.63 265.09 267.44 187.42 290.88 163.31 290.8 88.5 262"/>
      <circle class="cls-3" cx="179" cy="179" r="173.5"/>
      <g>
        <g>
          <path class="cls-5" d="M177.01,98.48c-6.97.02-9.41,2.48-8.81,7.32.53,4.28.95,8.57,1.39,12.85.29,2.82.46,5.66.82,8.47.84,6.61,1.84,13.2,2.63,19.81.6,5.07.89,10.17,1.46,15.24.84,7.53,1.86,15.04,2.7,22.57.56,4.96.86,9.95,1.45,14.91,1.08,9.09,2.35,18.15,3.41,27.24.81,6.98,1.36,13.99,2.11,20.97.86,7.99,1.76,15.98,2.76,23.96.57,4.57,1.22,9.15,2.14,13.66.94,4.63,4.33,6.46,8.9,4.8,9.88-3.59,19.71-7.29,29.51-11.07,8.03-3.09,16-6.35,24-9.54,2.39-.96,3.48-2.74,3.28-5.33-.48-6.35-.87-12.71-1.4-19.06-.4-4.86-.89-9.71-1.44-14.56-.86-7.63-1.78-15.26-2.69-22.89-.36-3.03-.77-6.05-1.15-9.08-.55-4.37-1.15-8.73-1.62-13.11-.34-3.17-.38-6.36-.75-9.53-.85-7.29-1.86-14.57-2.72-21.86-.78-6.63-1.38-13.28-2.19-19.91-.8-6.6-1.92-13.17-2.58-19.78-.49-4.97-1.79-7.69-5.41-8.29-6.89-1.14-13.83-1.96-20.75-2.92-2.35-.33-2.69,1.11-3.13,3-.27,1.19-1.48,2.75-2.54,3.01-1.31.31-3.27-.14-4.28-1.02-1.27-1.11-2.36-2.92-2.64-4.57-.43-2.54-1.69-3.18-3.96-3.22-2.14-.04-4.28-.38-6.41-.62-4.5-.52-8.99-1.06-12.11-1.42Z"/>
          <path d="M124.15,103.21c-2.97-.28-5.95-.56-8.92-.84-.27-8.77-.27-17.51,3.96-25.56,4.11-7.83,9.45-14.28,18.77-16.08,6.86-1.32,13.18.22,18.4,4.56,5.97,4.96,11,10.84,13,18.71.13.51.87.87,1.43,1.41.69-3.34,1.21-6.4,1.95-9.41,2.69-10.9,8.6-19.24,19.7-22.58,7.31-2.2,14.27-.62,20.29,4.36,10.49,8.69,14.79,20.6,17.39,33.38.61,2.97,1.23,4.96,5.12,5.39,4.49.49,9.62,1.31,10.94,7.18.47,2.07,1.03,4.14,1.28,6.23,1.19,9.89,2.33,19.78,3.41,29.68.77,7.09,1.33,14.21,2.15,21.3.8,6.95,1.91,13.87,2.71,20.82.62,5.41.83,10.87,1.45,16.28,1.04,9.1,2.33,18.16,3.37,27.26.62,5.41.88,10.86,1.47,16.28.78,7.08,1.42,14.2,2.68,21.2,1.35,7.55-.84,12.38-8.35,15.35-16.85,6.66-33.76,13.18-50.67,19.68-6.79,2.61-13.62,5.12-20.48,7.52-1.23.43-2.73.12-4.1.14-1.18-9.57-2.43-19.12-3.52-28.7-.82-7.23-1.35-14.49-2.15-21.72-.8-7.21-1.85-14.4-2.68-21.61-.79-6.89-1.37-13.81-2.15-20.71-.82-7.33-1.81-14.63-2.63-21.96-.79-7.11-1.4-14.23-2.21-21.34-.76-6.66-1.7-13.29-2.5-19.95-.61-5.07-1.09-10.16-1.67-15.24-.85-7.44-1.75-14.88-2.6-22.32-.76-6.67-1.44-13.34-2.2-20.01-.2-1.8-.54-3.59-.82-5.38.29-.35,5.12-.54,2.17-5.21-.96-1.52-1.99-3.02-3.15-4.39-7.05-8.35-17.86-10.67-24.98.68-3.82,6.09-5.22,12.83-5.18,19.96.01,1.88-.47,3.75-.72,5.63ZM176.64,98.4c-6.97.02-9.41,2.48-8.81,7.32.53,4.28.95,8.57,1.39,12.85.29,2.82.46,5.66.82,8.47.84,6.61,1.84,13.2,2.63,19.81.6,5.07.89,10.17,1.46,15.24.84,7.53,1.86,15.04,2.7,22.57.56,4.96.86,9.95,1.45,14.91,1.08,9.09,2.35,18.15,3.41,27.24.81,6.98,1.36,13.99,2.11,20.97.86,7.99,1.76,15.98,2.76,23.96.57,4.57,1.22,9.15,2.14,13.66.94,4.63,4.33,6.46,8.9,4.8,9.88-3.59,19.71-7.29,29.51-11.07,8.03-3.09,16-6.35,24-9.54,2.39-.96,3.48-2.74,3.28-5.33-.48-6.35-.87-12.71-1.4-19.06-.4-4.86-.89-9.71-1.44-14.56-.86-7.63-1.78-15.26-2.69-22.89-.36-3.03-.77-6.05-1.15-9.08-.55-4.37-1.15-8.73-1.62-13.11-.34-3.17-.38-6.36-.75-9.53-.85-7.29-1.86-14.57-2.72-21.86-.78-6.63-1.38-13.28-2.19-19.91-.8-6.6-1.92-13.17-2.58-19.78-.49-4.97-1.79-7.69-5.41-8.29-6.89-1.14-13.83-1.96-20.75-2.92-2.35-.33-2.69,1.11-3.13,3-.27,1.19-1.48,2.75-2.54,3.01-1.31.31-3.27-.14-4.28-1.02-1.27-1.11-2.36-2.92-2.64-4.57-.43-2.54-1.69-3.18-3.96-3.22-2.14-.04-4.28-.38-6.41-.62-4.5-.52-8.99-1.06-12.11-1.42ZM197.41,62.41c-4.43-.33-6.56,1.17-8.97,3.98-4,4.65-6.24,10.26-7.33,16.12-1.22,6.53-.82,6.45,6.08,6.95,4.26.31,8.48,1.17,12.71,1.82,6.34.97,12.66,2.06,19.01,2.84.64.08,2.13-.91,2.12-2.42-.07-6.88-4.28-13.24-7.7-19.13-3.27-5.62-9.05-9.82-15.91-10.17Z"/>
          <path class="cls-1" d="M138.55,282.44c-13.39-5.49-26.81-10.9-40.14-16.53-3.8-1.61-5.75-4.88-5.46-9.09.6-9.01,1.37-18.01,2.01-27.01.52-7.3.86-14.61,1.46-21.9.56-6.93,1.36-13.84,2.02-20.76.28-2.96.47-5.92.71-8.89.92-11.27,1.88-22.54,2.74-33.82.55-7.18.91-14.38,1.44-21.57.4-5.46.72-10.95,1.49-16.36.7-4.94,4.2-10.34,13.05-9.9,5.15.17,9.87,5.42,15.12,5.42,7.88.53,11.55-3.15,16.28-4.73,1.44-.48,9.2-6.03,10.5-6.83.28,1.79,1.12,9.03,1.88,15.69.84,7.44,1.75,14.88,2.6,22.32.58,5.08,1.06,10.16,1.67,15.24.8,6.65,1.74,13.29,2.5,19.95.81,7.11,1.41,14.23,2.21,21.34.82,7.33,1.81,14.63,2.63,21.96.77,6.9,1.36,13.81,2.15,20.71.83,7.21,1.88,14.39,2.68,21.61.81,7.23,1.33,14.49,2.15,21.72,1.09,9.58,2.16,29.37,1.7,29.18-9.61-3.89-19.19-7.85-28.78-11.8-6.51-3.08-8.08-3.6-14.59-5.94Z"/>
        </g>
        <g id="HkbUcY.tif">
          <g>
            <g>
              <path d="M223.32,197.15c-.1-.07-.17-.21-.25-.29l-2.46-21.06c.25-1.25,1.87-1.15,2.14.13.54,2.57.43,5.54.93,8.11l1.37,12.03c.13.9-.96,1.65-1.73,1.08Z"/>
              <path d="M211.56,175.87c.1.08.18.23.27.33l2.52,22.08c-.32,1-1.87,1.16-2.2.17l-2.48-22.11c.2-.7,1.27-.95,1.88-.46Z"/>
              <path d="M197.93,177.8c.73-.69,2.07-.38,2.25.53l2.35,20.57c-.16,1.43-2.37,1.53-2.57.16l-2.33-20.36c0-.29.07-.68.3-.9Z"/>
              <path d="M192.09,179.01c.83-.2,1.67.11,1.82.83l2.17,18.98c-.03,1.26-2.37,1.68-2.7.22l-2.16-18.94c0-.41.38-.98.87-1.1Z"/>
              <path d="M231.42,176.18c.67-.17,1.17.18,1.32.82l1.81,15.82c0,1.18-1.66,1.45-1.9.35l-1.85-16.18c0-.34.27-.72.62-.81Z"/>
              <path d="M204.23,176.52c.49-.5,1.57-.25,1.64.44l2.49,22.18c-.27.8-1.48.89-1.76.15l-2.54-22.48c.06-.09.1-.22.17-.29Z"/>
              <path d="M216.01,175.57c.56-.15,1.08.09,1.17.62l2.4,20.99c-.11.9-1.48,1.05-1.64.15l-2.4-21.03c-.06-.26.2-.66.47-.73Z"/>
              <path d="M226.56,175.82c.47-.12.9.08,1,.54l2.05,18.43c-.23.63-1.06.71-1.39.17l-2.15-18.63c.08-.24.21-.45.48-.51Z"/>
            </g>
            <g>
              <path d="M227.35,170.12c2.24,0,4.58-.37,6.71-.29,4.59.16,3.7,5.65,4.3,8.61,0,.9-1.14,1.06-1.38.16-.38-1.83-.27-3.99-.67-5.78-.18-.81-1.12-1.55-1.97-1.59l-6.93.32c-.89-.19-.96-1.26-.06-1.42Z"/>
              <path d="M185.77,196.95c.7-.2,1.24.11,1.4.63l.86,7.27c.38.97,1.59,1.69,2.9,1.56,3.08-.3,6.45-1.36,9.41-1.68,1.37-.08,1.32,1.45,0,1.69-2.86.39-5.98,1.31-8.97,1.68-7.19.89-5.52-6.39-6.38-10.15,0-.38.32-.86.78-.99Z"/>
              <path d="M187.15,171.84c3.06-.33,6.36-.17,9.31-.41,1.32.07,1.49,1.39.26,1.65l-9.56.48c-1.33.21-2.3,1.1-2.47,2.17l.81,7.35c-.19,1.1-1.93,1.17-2.21.07,0-3.85-3.28-10.53,3.86-11.31Z"/>
              <path d="M238.77,189.54c.47-.15.84.16.92.61.09,3.04,2.18,8.15-2.3,9.33-2.01.53-4.29.69-6.4,1.2-1,.19-1.34-1.01-.36-1.4,2.2-.6,4.69-.66,6.76-1.24.81-.23,1.56-1.16,1.56-2,0-1.82-.66-3.93-.65-5.74,0-.31.15-.67.47-.77Z"/>
            </g>
          </g>
        </g>
        <path d="M225.91,272.14c2.14-.73,4.29-1.45,6.43-2.17.24-.08,1.31-.39,1.73.56.11.25-.24.89-.52,1.01-1.72.72-3.48,1.34-5.23,2.01-.18.07-1.27.44-1.63.57-2.61.93-5.21,1.89-7.82,2.83-1.9.61-3.79,1.23-5.71,1.79-.29.09-.78-.05-.99-.26-.18-.18-.21-.73-.06-.94.23-.31.66-.52,1.04-.67,1.74-.68,3.5-1.32,5.24-1.99.19-.07,5.18-1.95,7.51-2.75Z"/>
      </g>
    </g>
  </g>
</svg>