<svg width="1350" height="1594" viewBox="0 0 1350 1594" fill="none" xmlns="http://www.w3.org/2000/svg">
<g clip-path="url(#clip0_150_2)">
<path d="M169.86 636.38L424.34 441.51L1127.04 525.82L1282.49 765.68L1263.87 1100.79L1127.04 1317.99L897.74 1491.75L582.89 1522.77L306.27 1411.07L136.45 1187.67L56.87 932.43L87.9 725.35L169.86 636.38Z" fill="#102C44" stroke="#1D1D1B" stroke-miterlimit="10"/>
<path d="M517.18 88.05C524.28 124 526.03 148.06 534.28 169.64C540.35 185.53 554.92 198.17 565.7 212.25C578.74 200.79 596.78 191.83 604.01 177.44C644.7 96.41 702.56 35.29 798.48 0C784.62 39.05 772.89 70.65 762.3 102.62C758.09 115.31 753.24 129.09 754.27 141.92C755.83 161.4 762.26 180.49 766.62 199.75C782.6 192.58 797.95 182.87 814.68 178.78C850.56 170.01 887.16 164.16 923.46 157.11C928.17 163 932.89 168.89 937.6 174.78C915.14 192.32 890.93 208.06 870.61 227.81C832.88 264.46 836.66 279.61 884.33 299.22C1001.33 347.35 1115.84 398.06 1201.26 498.11C1290.55 602.7 1338.13 722.5 1348.39 858.49C1358.29 989.76 1320.86 1173.86 1277.29 1242.87C1231.52 1315.36 983.96 1622.02 637.51 1591.54C208.59 1553.82 21.5102 1127.1 5.59021 999.16C-14.7998 835.3 20.2202 680.03 116.71 543.02C192.5 435.4 294.19 359.68 419.5 319.44C449.72 309.74 452.5 293.95 450.83 270.4C446.1 203.76 481.33 152.33 517.19 88.04L517.18 88.05ZM1212.94 894.51C1212.94 865.59 1213.8 841.22 1212.78 816.92C1209.63 742.08 1157.94 661.64 1098.4 653.87C1031.61 645.16 965.18 655.11 913.1 705.68C870.73 746.82 830.33 790.01 787.58 830.75C726.16 889.28 659.57 897.47 605.09 851.01C577.88 827.81 558.55 795.43 531.59 771.85C487 732.85 444.37 684.37 391.57 663.46C271.96 616.1 214.42 627.73 175.33 723.22C86.3602 940.54 151.88 1201.44 352.79 1341.31C603.54 1515.88 815.52 1484.66 1029.68 1315.77C1161.67 1211.68 1222.24 1062.24 1212.93 894.5L1212.94 894.51Z" fill="white"/>
<path d="M557.86 1021.52C623.8 990.96 696.98 996.1 778.97 1024.45C809.36 1034.96 812.32 1053.49 796.33 1068.66C756.79 1106.16 712.86 1149.67 654.41 1139.49C610.18 1131.78 546.99 1088.89 533.74 1047.31C531.07 1038.92 545.17 1027.7 557.87 1021.53L557.86 1021.52Z" fill="#EC6A66"/>
<path d="M1042.29 907.58C1042.29 939.78 1016.02 966.62 983.25 966.62C950.48 966.62 924.21 939.78 924.21 907.58C924.21 875.38 950.76 848.26 983.25 848.26C1015.74 848.26 1042.29 875.1 1042.29 907.58ZM1008.67 908.99C1006.13 909.84 1003.59 910.4 1000.76 910.4C987.77 910.4 976.75 899.95 976.75 886.67C976.75 885.26 976.75 884.13 977.03 883C966.01 885.82 959.23 896.28 959.23 907.58C959.23 921.42 969.12 932.44 983.24 932.44C997.36 932.44 1007.82 921.99 1008.66 908.99H1008.67Z" fill="white"/>
<path d="M424.34 907.58C424.34 939.78 398.07 966.62 365.3 966.62C332.53 966.62 306.26 939.78 306.26 907.58C306.26 875.38 332.81 848.26 365.3 848.26C397.79 848.26 424.34 875.1 424.34 907.58ZM390.72 908.99C388.18 909.84 385.64 910.4 382.81 910.4C369.82 910.4 358.8 899.95 358.8 886.67C358.8 885.26 358.8 884.13 359.08 883C348.06 885.82 341.28 896.28 341.28 907.58C341.28 921.42 351.17 932.44 365.29 932.44C379.41 932.44 389.87 921.99 390.71 908.99H390.72Z" fill="white"/>
</g>
<defs>
<clipPath id="clip0_150_2">
<rect width="1350" height="1593.67" fill="white"/>
</clipPath>
</defs>
</svg>
