<?xml version="1.0" encoding="UTF-8"?>
<svg id="Layer_2" data-name="Layer 2" xmlns="http://www.w3.org/2000/svg" viewBox="0 0 1350 1593.67">
  <defs>
    <style>
      .cls-1 {
        fill: #ec6a66;
      }

      .cls-2 {
        fill: #102c44;
      }

      .cls-3 {
        fill: #fff;
        stroke: #1d1d1b;
        stroke-miterlimit: 10;
      }
    </style>
  </defs>
  <g id="Layer_34" data-name="Layer 34">
    <g id="s4x2yN.tif">
      <g>
        <polygon class="cls-3" points="169.86 636.38 424.34 441.51 1127.04 525.82 1282.49 765.68 1263.87 1100.79 1127.04 1317.99 897.74 1491.75 582.89 1522.77 306.27 1411.07 136.45 1187.67 56.87 932.43 87.9 725.35 169.86 636.38"/>
        <path class="cls-2" d="m517.18,88.05c7.1,35.95,8.85,60.01,17.1,81.59,6.07,15.89,20.64,28.53,31.42,42.61,13.04-11.46,31.08-20.42,38.31-34.81C644.7,96.41,702.56,35.29,798.48,0c-13.86,39.05-25.59,70.65-36.18,102.62-4.21,12.69-9.06,26.47-8.03,39.3,1.56,19.48,7.99,38.57,12.35,57.83,15.98-7.17,31.33-16.88,48.06-20.97,35.88-8.77,72.48-14.62,108.78-21.67,4.71,5.89,9.43,11.78,14.14,17.67-22.46,17.54-46.67,33.28-66.99,53.03-37.73,36.65-33.95,51.8,13.72,71.41,117,48.13,231.51,98.84,316.93,198.89,89.29,104.59,136.87,224.39,147.13,360.38,9.9,131.27-27.53,315.37-71.1,384.38-45.77,72.49-293.33,379.15-639.78,348.67C208.59,1553.82,21.51,1127.1,5.59,999.16c-20.39-163.86,14.63-319.13,111.12-456.14,75.79-107.62,177.48-183.34,302.79-223.58,30.22-9.7,33-25.49,31.33-49.04-4.73-66.64,30.5-118.07,66.36-182.36Zm695.76,806.46c0-28.92.86-53.29-.16-77.59-3.15-74.84-54.84-155.28-114.38-163.05-66.79-8.71-133.22,1.24-185.3,51.81-42.37,41.14-82.77,84.33-125.52,125.07-61.42,58.53-128.01,66.72-182.49,20.26-27.21-23.2-46.54-55.58-73.5-79.16-44.59-39-87.22-87.48-140.02-108.39-119.61-47.36-177.15-35.73-216.24,59.76-88.97,217.32-23.45,478.22,177.46,618.09,250.75,174.57,462.73,143.35,676.89-25.54,131.99-104.09,192.56-253.53,183.25-421.27Z"/>
        <path class="cls-1" d="m557.86,1021.52c65.94-30.56,139.12-25.42,221.11,2.93,30.39,10.51,33.35,29.04,17.36,44.21-39.54,37.5-83.47,81.01-141.92,70.83-44.23-7.71-107.42-50.6-120.67-92.18-2.67-8.39,11.43-19.61,24.13-25.78Z"/>
        <path class="cls-2" d="m1042.29,907.58c0,32.2-26.27,59.04-59.04,59.04s-59.04-26.84-59.04-59.04,26.55-59.32,59.04-59.32,59.04,26.84,59.04,59.32Zm-33.62,1.41c-2.54.85-5.08,1.41-7.91,1.41-12.99,0-24.01-10.45-24.01-23.73,0-1.41,0-2.54.28-3.67-11.02,2.82-17.8,13.28-17.8,24.58,0,13.84,9.89,24.86,24.01,24.86s24.58-10.45,25.42-23.45Z"/>
        <path class="cls-2" d="m424.34,907.58c0,32.2-26.27,59.04-59.04,59.04s-59.04-26.84-59.04-59.04,26.55-59.32,59.04-59.32,59.04,26.84,59.04,59.32Zm-33.62,1.41c-2.54.85-5.08,1.41-7.91,1.41-12.99,0-24.01-10.45-24.01-23.73,0-1.41,0-2.54.28-3.67-11.02,2.82-17.8,13.28-17.8,24.58,0,13.84,9.89,24.86,24.01,24.86s24.58-10.45,25.42-23.45Z"/>
      </g>
    </g>
  </g>
</svg>