<svg width="1864" height="1808" viewBox="0 0 1864 1808" fill="none" xmlns="http://www.w3.org/2000/svg">
<ellipse cx="932" cy="904" rx="932" ry="904" fill="white"/>
<path d="M431.86 743.38L686.34 548.51L1389.04 632.82L1544.49 872.68L1525.87 1207.79L1389.04 1424.99L1159.74 1598.75L844.89 1629.77L568.27 1518.07L398.45 1294.67L318.87 1039.43L349.9 832.35L431.86 743.38Z" fill="white" stroke="#1D1D1B" stroke-miterlimit="10"/>
<path d="M779.18 195.05C786.28 231 788.03 255.06 796.28 276.64C802.35 292.53 816.92 305.17 827.7 319.25C840.74 307.79 858.78 298.83 866.01 284.44C906.7 203.41 964.56 142.29 1060.48 107C1046.62 146.05 1034.89 177.65 1024.3 209.62C1020.09 222.31 1015.24 236.09 1016.27 248.92C1017.83 268.4 1024.26 287.49 1028.62 306.75C1044.6 299.58 1059.95 289.87 1076.68 285.78C1112.56 277.01 1149.16 271.16 1185.46 264.11C1190.17 270 1194.89 275.89 1199.6 281.78C1177.14 299.32 1152.93 315.06 1132.61 334.81C1094.88 371.46 1098.66 386.61 1146.33 406.22C1263.33 454.35 1377.84 505.06 1463.26 605.11C1552.55 709.7 1600.13 829.5 1610.39 965.49C1620.29 1096.76 1582.86 1280.86 1539.29 1349.87C1493.52 1422.36 1245.96 1729.02 899.51 1698.54C470.59 1660.82 283.51 1234.1 267.59 1106.16C247.2 942.3 282.22 787.03 378.71 650.02C454.5 542.4 556.19 466.68 681.5 426.44C711.72 416.74 714.5 400.95 712.83 377.4C708.1 310.76 743.33 259.33 779.19 195.04L779.18 195.05ZM1474.94 1001.51C1474.94 972.59 1475.8 948.22 1474.78 923.92C1471.63 849.08 1419.94 768.64 1360.4 760.87C1293.61 752.16 1227.18 762.11 1175.1 812.68C1132.73 853.82 1092.33 897.01 1049.58 937.75C988.16 996.28 921.57 1004.47 867.09 958.01C839.88 934.81 820.55 902.43 793.59 878.85C749 839.85 706.37 791.37 653.57 770.46C533.96 723.1 476.42 734.73 437.33 830.22C348.36 1047.54 413.88 1308.44 614.79 1448.31C865.54 1622.88 1077.52 1591.66 1291.68 1422.77C1423.67 1318.68 1484.24 1169.24 1474.93 1001.5L1474.94 1001.51Z" fill="#102C44"/>
<path d="M819.86 1128.52C885.8 1097.96 958.98 1103.1 1040.97 1131.45C1071.36 1141.96 1074.32 1160.49 1058.33 1175.66C1018.79 1213.16 974.86 1256.67 916.41 1246.49C872.18 1238.78 808.99 1195.89 795.74 1154.31C793.07 1145.92 807.17 1134.7 819.87 1128.53L819.86 1128.52Z" fill="#EC6A66"/>
<path d="M1304.29 1014.58C1304.29 1046.78 1278.02 1073.62 1245.25 1073.62C1212.48 1073.62 1186.21 1046.78 1186.21 1014.58C1186.21 982.38 1212.76 955.26 1245.25 955.26C1277.74 955.26 1304.29 982.1 1304.29 1014.58ZM1270.67 1015.99C1268.13 1016.84 1265.59 1017.4 1262.76 1017.4C1249.77 1017.4 1238.75 1006.95 1238.75 993.67C1238.75 992.26 1238.75 991.13 1239.03 990C1228.01 992.82 1221.23 1003.28 1221.23 1014.58C1221.23 1028.42 1231.12 1039.44 1245.24 1039.44C1259.36 1039.44 1269.82 1028.99 1270.66 1015.99H1270.67Z" fill="#102C44"/>
<path d="M686.34 1014.58C686.34 1046.78 660.07 1073.62 627.3 1073.62C594.53 1073.62 568.26 1046.78 568.26 1014.58C568.26 982.38 594.81 955.26 627.3 955.26C659.79 955.26 686.34 982.1 686.34 1014.58ZM652.72 1015.99C650.18 1016.84 647.64 1017.4 644.81 1017.4C631.82 1017.4 620.8 1006.95 620.8 993.67C620.8 992.26 620.8 991.13 621.08 990C610.06 992.82 603.28 1003.28 603.28 1014.58C603.28 1028.42 613.17 1039.44 627.29 1039.44C641.41 1039.44 651.87 1028.99 652.71 1015.99H652.72Z" fill="#102C44"/>
</svg>
