<?xml version="1.0" encoding="UTF-8"?>
<svg id="Layer_2" data-name="Layer 2" xmlns="http://www.w3.org/2000/svg" xmlns:xlink="http://www.w3.org/1999/xlink" viewBox="0 0 381.86 368.49">
  <defs>
    <style>
      .cls-1 {
        fill: url(#radial-gradient);
      }

      .cls-1, .cls-2, .cls-3, .cls-4 {
        stroke: #000;
        stroke-miterlimit: 10;
      }

      .cls-1, .cls-2, .cls-4 {
        stroke-width: 8px;
      }

      .cls-2, .cls-3 {
        fill: none;
      }

      .cls-3 {
        stroke-width: 7px;
      }

      .cls-5 {
        clip-path: url(#clippath);
      }
    </style>
    <radialGradient id="radial-gradient" cx="191.04" cy="184.25" fx="14.75" fy="-51.36" r="294.25" gradientTransform="translate(0 9.81) scale(1 .95)" gradientUnits="userSpaceOnUse">
      <stop offset=".31" stop-color="#9fc"/>
      <stop offset="1" stop-color="#9be6c3"/>
    </radialGradient>
    <clipPath id="clippath">
      <path class="cls-2" d="M160.01,14.01L25.61,111.66C7.24,125.01-.45,148.67,6.57,170.27l51.33,157.99c7.02,21.6,27.15,36.23,49.86,36.23h166.12c22.71,0,42.84-14.62,49.86-36.23l51.33-157.99c7.02-21.6-.67-45.26-19.04-58.61L221.64,14.01c-18.37-13.35-43.26-13.35-61.63,0Z"/>
    </clipPath>
  </defs>
  <g id="Layer_13" data-name="Layer 13">
    <g>
      <g>
        <path class="cls-1" d="M160.22,14.02L25.82,111.66C7.45,125.01-.24,148.68,6.78,170.28l51.33,157.99c7.02,21.6,27.15,36.23,49.86,36.23h166.12c22.71,0,42.84-14.62,49.86-36.23l51.33-157.99c7.02-21.6-.67-45.26-19.04-58.61L221.85,14.02c-18.37-13.35-43.26-13.35-61.63,0Z"/>
        <g>
          <g class="cls-5">
            <circle class="cls-4" cx="191.31" cy="505.34" r="197.5"/>
          </g>
          <path class="cls-2" d="M160.01,14.01L25.61,111.66C7.24,125.01-.45,148.67,6.57,170.27l51.33,157.99c7.02,21.6,27.15,36.23,49.86,36.23h166.12c22.71,0,42.84-14.62,49.86-36.23l51.33-157.99c7.02-21.6-.67-45.26-19.04-58.61L221.64,14.01c-18.37-13.35-43.26-13.35-61.63,0Z"/>
        </g>
      </g>
      <g>
        <g>
          <path class="cls-3" d="M202.6,211.88s-12.14,2.17-12.35,19.34.21,70.8.21,77.86"/>
          <path d="M194.79,216.27s88.81,7.77,96.58-81.04l.02-.19-.33-.03s-88.81-7.77-96.58,81.04l.32.22Z"/>
        </g>
        <g>
          <path class="cls-3" d="M178.22,211.97s12.14,2.17,12.35,19.34-.21,70.8-.21,77.86"/>
          <path d="M186.03,216.36s-88.81,7.77-96.58-81.04l-.02-.19.33-.03s88.81-7.77,96.58,81.04l-.32.22Z"/>
        </g>
      </g>
    </g>
  </g>
</svg>