<?xml version="1.0" encoding="UTF-8"?>
<svg id="Layer_2" data-name="Layer 2" xmlns="http://www.w3.org/2000/svg" xmlns:xlink="http://www.w3.org/1999/xlink" viewBox="0 0 163.86 269.7">
  <defs>
    <style>
      .cls-1 {
        clip-path: url(#clippath);
      }

      .cls-2, .cls-3, .cls-4, .cls-5, .cls-6, .cls-7, .cls-8, .cls-9, .cls-10, .cls-11, .cls-12, .cls-13, .cls-14, .cls-15, .cls-16, .cls-17, .cls-18, .cls-19, .cls-20, .cls-21, .cls-22, .cls-23, .cls-24, .cls-25, .cls-26, .cls-27, .cls-28, .cls-29, .cls-30, .cls-31, .cls-32, .cls-33, .cls-34, .cls-35, .cls-36, .cls-37, .cls-38, .cls-39, .cls-40, .cls-41, .cls-42, .cls-43, .cls-44, .cls-45 {
        stroke-width: 0px;
      }

      .cls-2, .cls-46 {
        fill: none;
      }

      .cls-3 {
        fill: url(#linear-gradient);
      }

      .cls-4 {
        fill: url(#radial-gradient);
      }

      .cls-47 {
        clip-path: url(#clippath-1);
      }

      .cls-48 {
        fill: #fff;
        stroke: #222221;
      }

      .cls-48, .cls-46, .cls-49 {
        stroke-miterlimit: 10;
      }

      .cls-46 {
        stroke: #fbd15b;
        stroke-width: 2px;
      }

      .cls-5 {
        fill: url(#linear-gradient-2);
      }

      .cls-6 {
        fill: url(#linear-gradient-3);
      }

      .cls-49 {
        fill: #79797c;
        stroke: #494949;
        stroke-width: 3px;
      }

      .cls-7 {
        fill: #f8f6f9;
      }

      .cls-8 {
        fill: #763f34;
      }

      .cls-9 {
        fill: #500d0b;
      }

      .cls-10 {
        fill: #533d4f;
      }

      .cls-11 {
        fill: #502e36;
      }

      .cls-12 {
        fill: #262141;
      }

      .cls-13 {
        fill: #484250;
      }

      .cls-14 {
        fill: #2b293a;
      }

      .cls-15 {
        fill: #896c84;
      }

      .cls-16 {
        fill: #89849b;
      }

      .cls-17 {
        fill: #884e57;
      }

      .cls-18 {
        fill: #a3654c;
      }

      .cls-19 {
        fill: #a2a0af;
      }

      .cls-20 {
        fill: #6f697e;
      }

      .cls-21 {
        fill: #585565;
      }

      .cls-22 {
        fill: #191725;
      }

      .cls-23 {
        fill: #404e56;
      }

      .cls-24 {
        fill: #161224;
      }

      .cls-25 {
        fill: #213045;
      }

      .cls-26 {
        fill: #1f1c26;
      }

      .cls-27 {
        fill: #241125;
      }

      .cls-28 {
        fill: #242337;
      }

      .cls-29 {
        fill: #12233b;
      }

      .cls-30 {
        fill: #c83e34;
      }

      .cls-31 {
        fill: #c9c3d3;
      }

      .cls-32 {
        fill: #cd9576;
      }

      .cls-33 {
        fill: #dbd7ed;
      }

      .cls-34 {
        fill: #b09cb5;
      }

      .cls-35 {
        fill: #cdccd1;
      }

      .cls-36 {
        fill: #cf6a66;
      }

      .cls-37 {
        fill: #905141;
      }

      .cls-38 {
        fill: #323f4b;
      }

      .cls-39 {
        fill: #6b4a5d;
      }

      .cls-40 {
        fill: #9f90b9;
      }

      .cls-41 {
        fill: #7d7a89;
      }

      .cls-42 {
        fill: #663432;
      }

      .cls-43 {
        fill: #750d12;
      }

      .cls-44 {
        fill: #e8dfe5;
      }

      .cls-45 {
        fill: #e3bcb5;
      }
    </style>
    <radialGradient id="radial-gradient" cx="81.93" cy="134.85" fx="81.93" fy="134.85" r="111.57" gradientUnits="userSpaceOnUse">
      <stop offset="0" stop-color="#d3807f"/>
      <stop offset="1" stop-color="#cf6a66"/>
    </radialGradient>
    <clipPath id="clippath">
      <rect class="cls-2" width="163.86" height="269.7" rx="16.33" ry="16.33"/>
    </clipPath>
    <clipPath id="clippath-1">
      <rect class="cls-2" x="24" y="30.52" width="113.72" height="211.13" rx="9.33" ry="9.33"/>
    </clipPath>
    <linearGradient id="linear-gradient" x1="-28.55" y1="117.97" x2="9.85" y2="119.16" gradientUnits="userSpaceOnUse">
      <stop offset="0" stop-color="#525165"/>
      <stop offset="1" stop-color="#292a3f"/>
    </linearGradient>
    <linearGradient id="linear-gradient-2" x1="37.36" y1="164.68" x2="68.43" y2="171.08" gradientUnits="userSpaceOnUse">
      <stop offset="0" stop-color="#afa6b7"/>
      <stop offset="1" stop-color="#928a9d"/>
    </linearGradient>
    <linearGradient id="linear-gradient-3" x1="121.24" y1="165.35" x2="142.52" y2="167.55" gradientUnits="userSpaceOnUse">
      <stop offset="0" stop-color="#bfb1c3"/>
      <stop offset="1" stop-color="#a18ea7"/>
    </linearGradient>
  </defs>
  <g id="OBJECTS">
    <g>
      <rect class="cls-4" width="163.86" height="269.7" rx="16.33" ry="16.33"/>
      <g class="cls-1">
        <g>
          <g>
            <path class="cls-38" d="M149.05,171c-15.55,29.31-37.31,67.8-46.8,82.56C85.71,279.3-.18,373.83-46.99,414.61c0,0-128.55-72.82-104.19-97.02,24.36-24.21,124.02-101.63,162.64-128.84,28.32-19.96,94.56-52.41,130.4-61.71,14.19-5.81,7.19,43.97,7.19,43.97Z"/>
            <path class="cls-23" d="M-119.15,313.7c11.74-10.88,115.57-96.45,139.9-111.52,24.33-15.07,78.07-45.38,100.72-49.56s-28.21,82.52-40.37,96.33c-12.16,13.81-29.71,47.69-120.31,125.11-19.29,18.83-79.94-60.35-79.94-60.35Z"/>
          </g>
          <g>
            <path class="cls-49" d="M33.23,29.11h95.25c5.87,0,10.64,4.77,10.64,10.64v192.67c0,5.87-4.77,10.64-10.64,10.64H33.23c-5.88,0-10.65-4.77-10.65-10.65V39.76c0-5.88,4.77-10.65,10.65-10.65Z"/>
            <g class="cls-47">
              <g>
                <g>
                  <path class="cls-3" d="M-4.41,54.29c-.05,2.51-.4,6.07-.59,8.75-.26,3.75-1.35,14.2-2.35,16.41,1.76.12,8.93,15.23,9.68,14.95,1.85-5.02,3.07-18.83,3.81-20.79.68-1.81,10-9.29,15.26-23.71,2.3,4.6,5,12.52,8.21,8.75-1.05,2.42-2.86,4.79-4.11,7.29-.31.62-4.24,5.15-6.45,12.03-4.89,15.23-9.42,69.76-11.15,89.35-2.22-.49-.66,3.66-1.17,5.47-.25.87-6.03,14.39-7.33,15.68-2.27,1.27-15.89.84-19.66.73-.9-.03-.42-1.44-.88-1.46-3.21-.12-6.3,2.14-7.92.73-.29-1.38-4.2-5.42-4.69-8.39-.37-2.23-.1-28.96,0-35.38.35-21.74,2.48-43.3,4.11-64.92,1.72,3.1,5.58-7.08,5.87-9.48q3.52-4.38,7.04-8.75c.36-.2.84.77.88.73.95-.97,10.51-15.2,11.15-14.59.5,2.05.33,4.44.29,6.56Z"/>
                  <path class="cls-21" d="M21.4,49.91c-5.25,14.42-14.57,21.89-15.26,23.71-.74,1.96-1.96,15.77-3.81,20.79-.76.28-7.92-14.83-9.68-14.95,1-2.21,2.08-12.66,2.35-16.41.15,3.33,17.96,3.45,17.6,0-1.13-2.33,1.64-2.77-.59-4.38,3.29-.49,5.1-12.48,7.04-14.59.57,1.87,1.5,4.15,2.35,5.84Z"/>
                  <path class="cls-14" d="M10.25,56.48c-2.93-.44-6.37-3.58-6.75-3.65-2.92-.54,3.37,9.79-6.16,2.92-.09-.07-.03-1.51-1.76-1.46.04-2.12.21-4.51-.29-6.56-.64-.61-10.2,13.62-11.15,14.59-.04.04-.52-.92-.88-.73-.59-5.3,1.03-6.45,1.17-8.02q7.19-11.31,14.38-22.61c4.17,8.25,7.86,16.87,11.44,25.53Z"/>
                  <path class="cls-14" d="M-2.65,55.75c-1.73-1.2-.57,7.05-.29,7.29.64.56,13.26-.42,15.55,0,.36,3.45-17.45,3.33-17.6,0,.19-2.68.54-6.24.59-8.75,1.73-.06,1.67,1.39,1.76,1.46Z"/>
                  <path class="cls-21" d="M10.25,56.48c.43,1.04,1.6.83,1.76,2.19,2.23,1.6-.54,2.05.59,4.38-2.29-.42-14.91.56-15.55,0-.28-.25-1.43-8.49.29-7.29,9.53,6.87,3.24-3.46,6.16-2.92.38.07,3.82,3.21,6.75,3.65Z"/>
                </g>
                <g>
                  <path class="cls-9" d="M62.18,260.71c4.21-43.7,3.22-88.56,1.47-132.75.96,1.18,3.45-3,3.52-3.28.52-2.19,1.55-37.19,2.35-45.59,3.87.55,6.61-.66,7.63-.73-3.31,16.92-3.73,34.49-4.69,51.79-1.97,35.31-1.86,53.84-.59,88.99.58,15.92.65,31.88,1.76,47.78q8.51-.36,17.02-.73c1.4-32.67,3.5-65.74,2.93-98.47-.4-23.05-5.97-81.22-5.28-92.63.13-2.12,3.42-22.19,4.69-19.33.73,5.42,2.91,12.62,1.76,12.76.29.68,1.12.25,1.17.36,1.85,3.8,4.24,7.43,7.04,10.21v1.46c-4.12,60.38-3.67,121.15-1.17,181.62.06,1.57.56,1.64.59,2.19.38,9.03,1.13,18.76,1.17,27.72,0,.12-.87-.34-.59,2.19-.84-2.68-1.91-4.78-4.99-3.65-3.5,1.29,1.05,18.57-9.09,15.32.04-.48-.03-.98,0-1.46.64-11.57.3-24.39.29-35.74q-7.77.55-15.55,1.09c.85,9.08.74,18.25,1.17,27.35-5.29,3.71-9.32,9.12-15.26,11.67.3-3.35-.59-2.77-.59-2.92.08-9.15,2.95-30.24,3.51-41.73"/>
                  <path class="cls-11" d="M62.47,263.99c-1.76-2.53-4.46-.34-4.69-.36-2.36-.27-15.44-2.11-16.43.36.89,10.3.98,20.69,1.76,31-6.48-.26-12.87,1.12-19.36.73-4.9-.3-7.15,1.42-6.45-2.92.06,0-.18-1.47.29-1.46,3.3.09,7.7.32,10.85,0,.97-.1,4.27.39,4.69-.36q-.29-18.96-.59-37.93c-.43-.75-2.68-.24-3.52-.36-5.95-.87-13.84,1.88-12.61-2.19,3.59-.23,7.27.32,10.85,0,1.65-.14,3.33.1,4.99,0,.66-.49.07-2.44.29-2.92.05-.1.97.3,1.17-.36,2.03-6.75,1.84-80.63,2.35-97.01l-1.17-.36c.9-18.72.4-59.25,4.69-74.76.2-.74,5.37-13.38,5.87-13.86,1.38-1.33,1.68.33,1.76.36-6.79,15.08-1.62,14.25-.59,16.05.61,1.06,1.84.98,1.76,2.55-7.74,59.72-13.74,120.43-6.75,180.52,5.64.31,11.1-.09,16.72-.73.19-.02,1.25,1.19,3.81.73"/>
                  <path class="cls-11" d="M62.46,264.2c0-.07,0-.14.01-.21"/>
                  <g>
                    <path class="cls-22" d="M99.44,66.69c-1.41,1.19-1.35,1.35-3.52,2.19-.06-.11-.88.32-1.17-.36,1.15-.15-1.04-7.35-1.76-12.76q-2.05-4.38-4.11-8.75c-.05-.57-.53-3.48-.59-3.65-1.22-3.48-.45-.72-2.93-2.19.8-2.49,1.29-7.27,2.93-10.21.2,0,.39,0,.59,0,4.38,12.16,5.65,24.26,10.56,35.74Z"/>
                    <path class="cls-43" d="M88.29,43.35c-.37.2-.83-.77-.88-.73-1.3,1.01-9.48,31.71-10.27,35.74-1.02.07-3.76,1.28-7.63.73.19-1.95-.77-1.87,0-5.84.26-1.31,4.4-13.17,4.99-13.13,1.82.13-.47,16.34,10.85-18.96,2.48,1.47,1.71-1.29,2.93,2.19Z"/>
                    <g>
                      <path class="cls-30" d="M92.99,55.75c-1.28-2.86-4.57,17.21-4.69,19.33-.69,11.41,4.88,69.59,5.28,92.63.57,32.73-1.54,65.8-2.93,98.47q-8.51.36-17.02.73c-1.11-15.89-1.18-31.85-1.76-47.78.49-.06,1.58.28,1.76-.36,1.04-3.76.42-68.5.59-79.5.05-3.13.97-8.17-1.76-9.12.97-17.29,1.38-34.87,4.69-51.79,4.04-.26,8.15.88,9.39-1.09.46-8.61,3.01-22.55,2.35-30.27q2.05,4.38,4.11,8.75Z"/>
                      <path class="cls-45" d="M88.29,43.35c.06.17.54,3.08.59,3.65.66,7.72-1.89,21.66-2.35,30.27-1.24,1.98-5.35.84-9.39,1.09.79-4.03,8.97-34.73,10.27-35.74.05-.04.51.93.88.73Z"/>
                      <path class="cls-30" d="M71.86,219.13c-1.27-35.14-1.38-53.68.59-88.99,2.73.95,1.81,5.98,1.76,9.12-.17,11,.45,75.74-.59,79.5-.18.64-1.27.3-1.76.36Z"/>
                      <path class="cls-17" d="M88.88,304.47q-6.75-.36-13.5-.73c-.15-2.17-.48-4.3-.59-6.56-.44-9.11-.32-18.27-1.17-27.35q7.77-.55,15.55-1.09c0,11.35.35,24.17-.29,35.74Z"/>
                    </g>
                  </g>
                </g>
                <g>
                  <path class="cls-32" d="M42.53,46.27c-3.21,9.54-11.86,19.4-14.08,29.18-10.33,10.96-4.76-1.57-2.93-9.48,1.24-2.5,3.06-4.87,4.11-7.29.94-2.17,1.07-.79,1.17-3.65,1.84-.06,2.46-2.37,3.52-3.65,2.42-2.92,4.61-3.44,4.11-7.29.38.05.83-.1,1.17,0,1.42.4,1.27-1.2,2.05-.73,1.27.76.77,2.74.88,2.92Z"/>
                  <path class="cls-8" d="M47.81,55.75c.1.17-.21,1.01,1.76,3.65-.05.12-.26-1.19-1.17,2.19-.38-.06-.89.11-1.17,0-.09-.03-.38-1.69-1.76-.36-.5.48-5.66,13.12-5.87,13.86-4.29,15.52-3.79,56.05-4.69,74.76-.39,8.11-1.23,26.51-3.52,24.8-.47-25.66-1.13-51.32-1.76-76.95-3.13,4.04-3.09-13.83-1.17-22.25,2.22-9.78,10.87-19.64,14.08-29.18,1.93,3.15,3.32,6.28,5.28,9.48Z"/>
                  <path class="cls-42" d="M32.55,247.58c-1.16-20.41-.23-40.85-.59-61.27-.07-3.95-.51-7.74-.59-11.67,2.29,1.71,3.13-16.69,3.52-24.8l1.17.36c-.5,16.38-.31,90.26-2.35,97.01-.2.66-1.12.26-1.17.36Z"/>
                  <path class="cls-37" d="M32.55,247.58c-.23.48.37,2.43-.29,2.92-1.65.1-3.34-.14-4.99,0-.01-.83,1.12-1.44,1.17-1.82.88-6.08.32-37.96,1.76-51.79h1.17l.59-10.58c.36,20.42-.58,40.86.59,61.27Z"/>
                  <path class="cls-37" d="M28.44,291.34c1.09-12.86,1.23-25.78.59-38.66.84.12,3.09-.39,3.52.36q.29,18.96.59,37.93c-.43.75-3.73.27-4.69.36Z"/>
                  <g>
                    <path class="cls-18" d="M28.44,75.44c-1.91,8.42-1.95,26.29,1.17,22.25.63,25.63,1.29,51.29,1.76,76.95.07,3.93.52,7.72.59,11.67l-.59,10.58h-1.17c-1.44,13.83-.88,45.7-1.76,51.79-.06.39-1.19.99-1.17,1.82-3.58.32-7.26-.23-10.85,0-1.23,4.06,6.66,1.32,12.61,2.19.65,12.88.5,25.8-.59,38.66-3.15.32-7.55.09-10.85,0-.47-.01-.23,1.46-.29,1.46-2.9-.14-14.44-3.21-15.26-6.93v-41.21c2.34-25.74,3.6-51.56,5.87-77.32,1.72-19.59,6.26-74.12,11.15-89.35,2.21-6.88,6.15-11.42,6.45-12.03-1.83,7.92-7.4,20.44,2.93,9.48Z"/>
                    <path class="cls-8" d="M7.03,250.5c1.4,1.35,3.23,1.7,4.69,2.92,8.9,7.36,2.97,8.49-4.69-2.92Z"/>
                  </g>
                  <path class="cls-10" d="M48.39,61.58c-2.35,8.65-4.74,12.63-1.76,15.32v.73c-1.03-1.8-6.2-.97.59-16.05.28.11.79-.06,1.17,0Z"/>
                  <path class="cls-19" d="M49.57,59.4c-1.97-2.64-1.66-3.48-1.76-3.65,1.66-18.89,3.62,1.7,2.93,4.01-.46,1.54-1.15-.43-1.17-.36Z"/>
                </g>
                <g>
                  <path class="cls-14" d="M70.1,59.4c-3.49,15.5-2.48-2.29-8.21-5.84-.17-2.81-.69-4.87-1.76-7.29-.48-1.1-1.2-4.52-2.35-3.28-2.23,4.58-7.85,31.91-8.8,33.19-.85,1.14-1.3.72-2.35.73-2.98-2.69-.59-6.67,1.76-15.32.92-3.38,1.12-2.07,1.17-2.19.03-.07.71,1.9,1.17.36.69-2.31-1.27-22.9-2.93-4.01-1.96-3.2-3.35-6.34-5.28-9.48-.11-.18.39-2.15-.88-2.92-.78-.47-.64,1.13-2.05.73.81-1.62,2.02-2.84,2.93-4.38,1.53,2.76,5.01-8.8,6.75-8.02,8.54,26.98,2.93,17.25,9.09,2.55.47-1.13,1.35-3.94,2.64-3.28,1.14.58,8.95,26.93,9.09,28.45Z"/>
                  <g>
                    <path class="cls-10" d="M70.1,59.4c.39,4.28-3.47,9.74-.59,13.86-.77,3.97.19,3.89,0,5.84-.8,8.39-1.82,43.4-2.35,45.59-.07.29-2.57,4.46-3.52,3.28-.05-1.21.05-2.44,0-3.65-.48-11.98-2.63-24.13-2.93-36.1-.4-15.6,1.41-30.78,1.17-34.65,5.73,3.55,4.72,21.33,8.21,5.84Z"/>
                    <path class="cls-5" d="M60.13,123.58c1.96,45.43.35,90.99-1.76,136.4-5.63.64-11.08,1.04-16.72.73-6.99-60.1-1-120.8,6.75-180.52.08-1.58-1.15-1.5-1.76-2.55v-.73c1.04,0,1.5.41,2.35-.73,4.82,7.55,5.71-.35,6.45-2.92,2.95,3.37,1.66,18.88,2.35,28.81.44,6.3,2.21,14.82,2.35,21.52Z"/>
                    <path class="cls-20" d="M63.65,124.31c.05,1.21-.05,2.44,0,3.65,1.75,44.19,2.75,89.05-1.47,132.75-2.56.46-3.62-.75-3.81-.73,2.11-45.41,3.73-90.97,1.76-136.4,2.73-1.42,1.62.26,3.52.73Z"/>
                    <g>
                      <path class="cls-34" d="M57.78,263.63q-1.17,20.79-2.35,41.58c-3.79.04-7.86,1.48-11.73.73-.65-3.41-.33-7.58-.59-10.94-.78-10.31-.87-20.7-1.76-31,.98-2.48,14.07-.63,16.43-.36Z"/>
                      <path class="cls-20" d="M58.95,305.93c-2.33.44-3.28-.73-3.52-.73q1.17-20.79,2.35-41.58c.23.03,2.93-2.17,4.69.36-.53,11.44-3.44,32.73-3.52,41.94Z"/>
                    </g>
                    <path class="cls-16" d="M61.89,53.56c.24,3.87-1.57,19.04-1.17,34.65.31,11.98,2.46,24.13,2.93,36.1-1.9-.47-.79-2.15-3.52-.73-.14-6.7-1.91-15.21-2.35-21.52-.69-9.93.6-25.44-2.35-28.81,2.55-8.74,2.87-18.06,4.69-26.99,1.07,2.42,1.59,4.49,1.76,7.29Z"/>
                    <path class="cls-35" d="M60.13,46.27c-1.82,8.93-2.15,18.25-4.69,26.99-.75,2.57-1.63,10.47-6.45,2.92.95-1.28,6.57-28.6,8.8-33.19,1.14-1.23,1.86,2.19,2.35,3.28Z"/>
                  </g>
                </g>
                <g>
                  <g>
                    <path class="cls-15" d="M136.4,54.29c.9,2.67,1.99,5.36,2.93,8.02,2,21.3,2.65,43.48,3.52,64.92-2.39,10.52-.07,21.62,0,25.16.37,18.25-.63,36.5-.59,54.7.03,14.92,1.37,30.32,1.17,45.22-.08,5.73-2.12,19.85-1.76,23.34.05.53.81.37,1.17.36-.41,4.46-1.22,17.67-2.35,20.42.11-.93-1.27-.9-2.35-.73q1.17-19.15,2.35-38.29-7.92-.18-15.84-.36c-.14-1.56.04-1.79,0-2.19q7.92-.55,15.84-1.09c.82-42.81-.72-85.36-1.17-127.64-5-5.25-2.01-17.56-2.35-24.8-.36-7.77-1.52-15.82-1.76-23.71-.16-5.2,0-10.47,0-15.68,0-.46-1.18-.9,0-8.02l1.17.36Z"/>
                    <path class="cls-39" d="M144.62,189.23c.13,13.33.2,26.78,0,40.12-.12,8.11-.26,15.96-.59,24.07-.3,7.56-.47,15.08-1.17,22.61-.36,0-1.12.16-1.17-.36-.36-3.49,1.68-17.61,1.76-23.34.2-14.9-1.14-30.3-1.17-45.22-.04-18.21.96-36.45.59-54.7-.07-3.54-2.39-14.64,0-25.16.83,20.63,1.56,41.35,1.76,62Z"/>
                    <path class="cls-34" d="M138.16,295.72c-3.24.52-6.11,1.04-9.39.73-1.99-1.06-1.66-1.41-1.76-1.46.5-7.51-.56-15.17-1.17-22.61-.42-5.09-.71-10.24-1.17-15.32q7.92.18,15.84.36-1.17,19.15-2.35,38.29Z"/>
                    <path class="cls-22" d="M139.34,62.31c-.94-2.67-2.03-5.35-2.93-8.02-1.25-3.7-2.56-7.46-3.52-11.31h-1.17c-2.11,9.03-4.48,18.09-5.87,27.35h-.59c.33-2.41.38-4.88.59-7.29,1.09-12.74,2.03-19.83,6.16-32.09,4.96,10.13,6.28,20.1,7.33,31.36Z"/>
                    <path class="cls-35" d="M144.62,229.34c.2-13.33.13-26.78,0-40.12,1.22-.89,2.77,2.2,2.93,3.28.24,1.61.25,31.21,0,32.82-.16,1.04-1.68,4.17-2.93,4.01Z"/>
                    <path class="cls-6" d="M135.23,77.63c.24,7.89,1.4,15.94,1.76,23.71.34,7.24-2.66,19.55,2.35,24.8.45,42.29,1.99,84.83,1.17,127.64q-7.92.55-15.84,1.09c-2-22.42-4.81-44.41-5.28-67.1-.29-13.62.1-27.24.59-40.85.72-20.26,2.73-49.43,5.28-69.29h9.97Z"/>
                    <path class="cls-35" d="M136.4,54.29l-1.17-.36c-1.18,7.12,0,7.56,0,8.02,0,5.21-.16,10.48,0,15.68h-9.97c.29-2.26.25-5.06.59-7.29,1.39-9.26,3.75-18.32,5.87-27.35h1.17c.96,3.84,2.27,7.6,3.52,11.31Z"/>
                  </g>
                  <g>
                    <path class="cls-35" d="M115.28,54.29c-1.2,7.1-2.05,14.67-2.35,21.88-1.36-.03-3.08,2.38-4.11,2.92-1.87.97-3.77,1.82-5.87,1.46v-1.46c.78-6.35,1.74-12.72,2.93-18.96.07-.35.6.98,2.35-6.56q1.91-5.11,3.81-10.21c1.58,3.14,2.09,7.87,3.23,10.94Z"/>
                    <path class="cls-22" d="M120.56,63.04c0,.24,0,.49,0,.73-1.46-.28-4.47-7.3-5.28-9.48-1.14-3.07-1.65-7.8-3.23-10.94q-1.91,5.11-3.81,10.21c.1-.44-.74-1.58,1.17-9.12.92-3.62,2.9-9.36,4.4-12.76,1.31-.17,6.55,21.16,6.75,31.36Z"/>
                    <path class="cls-21" d="M102.96,79.09c-2.8-2.78-5.19-6.41-7.04-10.21,2.17-.84,2.11-1,3.52-2.19,2.33-1.97,3.73-5.22,6.45-6.56-1.2,6.24-2.15,12.62-2.93,18.96Z"/>
                    <path class="cls-20" d="M125.84,63.04c-.21,2.41-.26,4.88-.59,7.29l-4.11-.73c-.91-1.8-.6-3.87-.59-5.84,0-.24,0-.49,0-.73h5.28Z"/>
                    <path class="cls-41" d="M108.83,79.09c4.64,60.83,5.6,122,4.11,183.08-3.66.39-7.47-.28-11.15,0-2.49-60.47-2.95-121.24,1.17-181.62,2.1.36,4-.48,5.87-1.46Z"/>
                    <path class="cls-11" d="M124.67,254.87c.04.4-.14.63,0,2.19.46,5.07.75,10.23,1.17,15.32-3.61,1.72-3.22,13.68-3.52,20.06-2.12,1.22-4.77-.33-5.87-.36-.2,0-.39,0-.59,0q.59-13.68,1.17-27.35c-.43-.75-3.2-.26-4.11-.36-3.41-.41-7.12.3-10.56,0-.02-.55-.52-.61-.59-2.19,3.68-.28,7.48.39,11.15,0,1.79-.19,3.68.73,4.69-1.09-.31-23.69.42-47.43,0-71.12l1.76-2.19c.48,22.7,3.28,44.68,5.28,67.1Z"/>
                    <path class="cls-20" d="M112.93,76.17c-.91,22.44,1.34,45.21,3.52,67.47.13,15.43.9,30.89,1.17,46.32.42,23.68-.31,47.43,0,71.12-1.01,1.82-2.9.9-4.69,1.09,1.49-61.07.54-122.25-4.11-183.08,1.03-.54,2.75-2.95,4.11-2.92Z"/>
                    <path class="cls-13" d="M120.56,63.77c-.01,1.97-.32,4.04.59,5.84-7.64,9.57,4,7.03,2.93,9.85-.69,1.81-4.68-4.03-5.87,2.92-.9,5.3-.09,54.3,1.76,64.55-.48,13.6-.87,27.23-.59,40.85l-1.76,2.19c-.27-15.42-1.05-30.88-1.17-46.32-2.19-22.26-4.44-45.02-3.52-67.47.29-7.22,1.15-14.79,2.35-21.88.81,2.18,3.82,9.21,5.28,9.48Z"/>
                    <path class="cls-10" d="M125.26,70.34h.59c-.34,2.24-.3,5.03-.59,7.29-2.55,19.86-4.56,49.03-5.28,69.29-1.85-10.26-2.66-59.25-1.76-64.55,1.18-6.94,5.18-1.11,5.87-2.92,1.07-2.81-10.58-.27-2.93-9.85l4.11.73Z"/>
                    <g>
                      <path class="cls-19" d="M112.93,264.35q-.29,13.49-.59,26.99c-.44-.02-5.41,1.43-8.8.73-.04-8.96-.79-18.69-1.17-27.72,3.45.3,7.15-.41,10.56,0Z"/>
                      <path class="cls-16" d="M115.87,292.07c-4.34-.13-3.34-.72-3.52-.73q.29-13.49.59-26.99c.91.11,3.68-.39,4.11.36q-.59,13.68-1.17,27.35Z"/>
                    </g>
                  </g>
                </g>
              </g>
            </g>
            <g>
              <path class="cls-44" d="M75.23,124.65c.68-.11,11.23.08,13.12,0,.49.12.79.49.94.91l.04,20.79c-.11.33-.37.61-.73.72-1.93-.08-13.01.11-13.69,0-.37-.06-.61-.4-.73-.69v-20.67c.1-.41.58-1,1.05-1.08Z"/>
              <g>
                <path class="cls-28" d="M81.86,145.25s.45-.02.48.05c0,.39.06,1.53-.18,1.19-.04-.06.13-1.69-.25-.99-.07.14-.14.69-.27.91-.19.05-.24-1.14-.61-1.03-.23.07.07,1.26-.21,1.16-.11-.04-.02-1.07-.05-1.24.72-.1.58.04.84.69.08-.11.19-.71.25-.74Z"/>
                <path class="cls-28" d="M87.99,145.22c.78-.14.66,1.24.14,1.28-.48.04-.32-.62-.14-.48.05.04-.03.22.07.26.22.08.3-.63.02-.59.28-.34-.13-.25-.18-.13-.13.33.51.27.2.4-.41.17-.6-.65-.11-.74Z"/>
                <path class="cls-28" d="M86.75,145.25c.68-.13.56,1,.18,1.19-.69.34,0-.27.02-.3.09-.31-.32,0-.45.34-.73.15.95-.95.36-1.03-.19-.02-.01.53-.29.45-.15-.05-.1-.59.18-.64Z"/>
                <path class="cls-28" d="M79.01,145.22c.29-.12.15.2.05.56-.08.31-.22.86-.45.72-.06-.04.32-1.26.39-1.28Z"/>
                <path class="cls-29" d="M82.76,146.18c.06-.04.26.02.23.11-.07.19-.44.02-.23-.11Z"/>
                <g>
                  <path class="cls-44" d="M84.23,125.35v19.43s.13,0,.18.02c.07.01.17,0,.25,0,.2,0,.24-.03.25-.03.04,0,.12.05.32.03.09,0,.19.03.25-.05v-.24c.22-.01.26.19.32.22.02.1.5.09.53.02v-19.08c.13-.03.18.33.23.32.02,0,.03-.2.14-.19.11,0,.1.33.12.37.24.33.16-.73.32-.82q-.02,9.68-.04,19.37l.21.02s.23.17-.23.1c-.04,0-.05-.14-.18-.1-.09.03-.03.16-.07.19-.09.06-.23-.1-.43-.1-.02,0-.41.11-.43.13-.08.09.11.4-.09.39-.43-.46-.87.3-.75.67-.07-.2.05-.29-.21-.22-.04-.96-1-.75-.86.26l-.11.03c-.02-.26-.21-.27-.21-.3.39-.35-.05-.77-.46-.47.1-.19.28-.28.21-.51.05,0,.09.02.14-.05,0-.43,0-.87,0-1.3.14-.1.25-.81.07-.98.23-.04.03-.58.04-.64,0-.02.07,0,.07-.03.02-1.49-.07-2.97,0-4.46-.24-.16-.03-1.18-.11-1.48,0-.02-.05-.02-.07-.02,0-1.36.11-9.92,0-10.43.15-.19.43-.05.57-.06Z"/>
                  <path class="cls-28" d="M75.61,126.06c.15,6.22-.11,12.46,0,18.68-.15.11-.3.07-.5.05,0-6.49,0-12.99.04-19.48.63-.08.44-.02.46.75Z"/>
                  <path class="cls-28" d="M82.17,125.38v19.41c-.14,0-.29,0-.43,0,.02-6.01-.14-12.03-.07-18.04,0-.19-.05-1.4,0-1.46.02-.02.59-.07.5.08Z"/>
                  <path class="cls-28" d="M76.54,125.32q-.02,9.72-.04,19.45c-.15,0-.31.08-.46,0,.02-5.46-.02-10.91,0-16.37,0-1.02,0-2.04,0-3.06.15-.12.47-.02.5-.02Z"/>
                  <path class="cls-28" d="M80.46,125.29s.05,0,.07,0c.08,6.49.08,12.99.04,19.48-.02,0-.3.1-.46-.02.02-4.6.09-9.21,0-13.82v-5.6c.04-.08.23-.04.36-.05Z"/>
                  <path class="cls-44" d="M78.42,125.35v19.35s.01.03-.34.03c0,0-.09-.06-.12-.06v-19.32s.1-.06.27-.06c.01,0,.17.06.2.06Z"/>
                  <path class="cls-31" d="M82.88,125.32l-.32.02q.02,9.73.04,19.46c-.12,0-.3,0-.43,0v-19.41c.2-.01.62-.26.71-.06Z"/>
                  <path class="cls-44" d="M76.04,128.4c-.02,5.46.02,10.91,0,16.37l-.2-.42c-.1-.02-.08.28-.23.39-.11-6.22.15-12.46,0-18.68.19,0,.2.28.32.4l.11,1.94Z"/>
                  <path class="cls-28" d="M81.31,125.32s0,.04,0,.06v19.38c-.12.01-.23.03-.36.03q-.02-9.73-.04-19.46l.39-.02Z"/>
                  <path class="cls-31" d="M81.67,126.76c-.06,6.01.09,12.03.07,18.04-.19-.03.13-.44-.43-.51v-18.9c.2.29.28.19.29.21.08.15-.11,1.05.07,1.17Z"/>
                  <path class="cls-33" d="M79.81,125.32s-.06-.03-.07-.03c-.03,0-.23,0-.25.02,0,1.8,0,3.6,0,5.41,0,4.67-.02,9.35.04,14.02-.16.02-.24,0-.39,0v-19.38c.27-.03.65-.2.68-.03Z"/>
                  <path class="cls-31" d="M81.31,125.32l-.39.02q.02,9.73.04,19.46c-.16,0-.25-.02-.39-.03.05-6.49.04-12.99-.04-19.48,0,0-.01-.06.02-.06.23.22.68-.18.77.1Z"/>
                  <path class="cls-44" d="M77.28,125.35v19.35c-.06,0-.03.06-.05.06-.01,0-.05-.07-.27-.06v-19.32c.11-.05.21-.03.32-.03Z"/>
                  <path class="cls-33" d="M83.52,125.29h-.11l-.25.05v19.43c-.11-.02-.21-.06-.32-.06q.02-9.66.04-19.32c.24,0,.27-.24.62-.16.03,0,.01.06.02.06Z"/>
                  <path class="cls-28" d="M86.34,125.67v19.08c-.04.07-.52.09-.53-.02.13,0,.23.04.29-.08v-18.9l-.14-.03c-.04,1.79.01,3.59,0,5.39l-.14.08c0-1.95,0-3.9,0-5.86.46-.12.59-.11.53.34Z"/>
                  <path class="cls-24" d="M85.45,125.29q.02,9.61.04,19.22v.24c-.06.08-.16.04-.25.05q-.02-9.73-.04-19.46l.25-.05Z"/>
                  <path class="cls-28" d="M79.81,125.32s0,.51,0,.64c.01.4,0,.79,0,1.19.04,5.86-.03,11.71,0,17.57-.03.04-.22,0-.29.02-.06-4.67-.04-9.35-.04-14.02.04.01.1-.02.11-.05.09-.28,0-2.86,0-3.47,0-.3,0-1.49.04-1.67,0-.02.15.05.11-.24.01,0,.07.03.07.03Z"/>
                  <path class="cls-24" d="M79.14,125.35v19.38c-.08,0-.17,0-.25,0q-.02-9.68-.04-19.37c.11-.11.27-.01.29-.02Z"/>
                  <path class="cls-24" d="M84.91,125.35v19.41s-.05.04-.25.03q-.02-9.72-.04-19.43l.29-.02Z"/>
                  <path class="cls-27" d="M82.88,125.32s0,.04,0,.06q-.02,9.66-.04,19.32l-.02.1c-.08,0-.16,0-.23,0q-.02-9.73-.04-19.46l.32-.02Z"/>
                  <path class="cls-28" d="M76.96,125.35v19.35s.1.05-.21.06q-.02-9.7-.04-19.4l.25-.02Z"/>
                  <path class="cls-28" d="M77.96,125.35v19.32s.11.06-.25.06v-19.38c.09,0,.16,0,.25,0Z"/>
                  <path class="cls-24" d="M77.5,125.35q.02,9.69.04,19.38c-.27,0-.24-.03-.25-.03v-19.35c.08,0,.14,0,.21,0Z"/>
                  <path class="cls-28" d="M78.64,125.38l-.04,19.35c-.22,0-.17-.03-.18-.03v-19.35c.34,0,.2.03.21.03Z"/>
                  <path class="cls-28" d="M85.8,144.73c0-4.51,0-9.03,0-13.54l.14-.08c.01-1.8-.04-3.6,0-5.39l.14.03v18.9c-.06.12-.15.07-.29.08Z"/>
                  <path class="cls-28" d="M83.52,125.29c.07.03.1-.07.14.13.11.51,0,9.07,0,10.43,0,2.53.03,5.07,0,7.61,0,.43,0,.87,0,1.3-.05.07-.09.04-.14.05-.12.02-.24-.01-.36-.03v-.03c.06,0,.22.02.25-.02.1-.12-.06-2.85,0-2.98,0,0,.17-.09.18-.1.04-.09.03-1.86,0-1.96,0-.01-.1-.03-.18-.19v-14.2h.11Z"/>
                  <path class="cls-28" d="M84.45,125.32q-.02,9.74-.04,19.48s-.15.02-.18-.02v-19.43s-.05-.02.21-.03Z"/>
                  <path class="cls-33" d="M79.14,125.35s-.18-.1-.29.02q.02,9.68.04,19.37c-.1,0-.19,0-.29,0l.04-19.35c.18,0,.42-.29.5-.03Z"/>
                  <path class="cls-33" d="M76.96,125.35l-.25.02q.02,9.7.04,19.4c-.09,0-.16,0-.25,0q.02-9.72.04-19.45c.13,0,.27-.05.41-.03l.02.06Z"/>
                  <path class="cls-40" d="M77.71,125.35v19.38c-.06,0-.12,0-.18,0q-.02-9.69-.04-19.38c.07,0,.15,0,.21,0Z"/>
                  <path class="cls-33" d="M84.91,125.35l-.29.02q.02,9.72.04,19.43c-.08,0-.18.01-.25,0q.02-9.74.04-19.48c.28-.01.43-.16.46.03Z"/>
                  <g>
                    <path class="cls-28" d="M88.23,125.32s.15-.02.18.02q.02,9.69.04,19.38s-.26.01-.32.02c0-6-.21-12.02-.07-18.02,0-.19,0-1.32.04-1.38.02-.03.1-.01.14-.02Z"/>
                    <path class="cls-28" d="M87.41,125.35c-.02,4.58.02,9.16,0,13.73,0,1.25.03,4.8-.07,5.65l-.21-.02q.02-9.68.04-19.37c.06-.09.24,0,.25,0Z"/>
                    <path class="cls-28" d="M87.83,125.32v19.41c-.08,0-.18.01-.25,0v-19.37c.06-.09.17-.03.25-.05Z"/>
                    <path class="cls-31" d="M88.23,125.32s-.12-.02-.14.02c-.04.06-.03,1.19-.04,1.38-.14,6,.07,12.02.07,18.02-.1,0-.19,0-.29,0v-19.41s.02,0,.04,0c.07-.01.31-.07.34-.06.03,0,.01.06.02.06Z"/>
                    <path class="cls-33" d="M87.87,125.32s-.02,0-.04,0c-.08.02-.19-.04-.25.05v19.37s0,.07-.07.02c-.08-.74.1-5.38,0-5.65-.01-.03-.08-.01-.11-.02.02-4.58-.02-9.16,0-13.73.15-.02.3-.13.46-.03Z"/>
                  </g>
                  <path class="cls-33" d="M85.45,125.29l-.25.05q.02,9.73.04,19.46c-.2.02-.28-.03-.32-.03v-1.8s.06,0,.07-.02c.06-.16,0-2.23.04-2.73,0-.03.11,0,.11-.03.02-.33-.13-.63.04-.67-.06-4.08-.05-8.15-.07-12.23,0-.03.07,0,.07-.06,0-.02-.07,0-.07-.03,0-.61-.2-2.22.36-1.91Z"/>
                  <path class="cls-33" d="M80.46,125.29c-.12.01-.32-.04-.36.05v5.6c-.02-.88.03-2.37-.04-3.1,0-.01-.1-.03-.11-.06-.02-.2.19-.68-.14-.63,0-.4.01-.79,0-1.19.51,0-.04-.94.62-.74.03,0,.02.04.02.06Z"/>
                  <path class="cls-33" d="M81.31,144.77v-.1c.54.13.2.08,0,.1Z"/>
                  <path class="cls-44" d="M85.64,140.08s.11,0,.09.05c-.03.05-.17,0-.09-.05Z"/>
                  <path class="cls-44" d="M83.66,143.45c.03-2.53,0-5.07,0-7.61.02,0,.06,0,.07.02.08.29-.14,1.32.11,1.48-.07,1.49.02,2.97,0,4.46,0,.02-.07,0-.07.03,0,.06.19.6-.04.64.17.17.07.88-.07.98Z"/>
                  <path class="cls-12" d="M79.74,125.29c.04.29-.1.22-.11.24-.04.18-.03,1.37-.04,1.67,0,.6.09,3.18,0,3.47,0,.03-.07.06-.11.05,0-1.8,0-3.6,0-5.41.02-.02.22-.03.25-.02Z"/>
                  <path class="cls-28" d="M83.41,125.29v14.2c.07.16.17.18.18.19.03.09.04,1.87,0,1.96,0,0-.17.09-.18.1-.06.14.1,2.86,0,2.98-.03.04-.19,0-.25.02v-19.4l.25-.05Z"/>
                </g>
                <g>
                  <g>
                    <path class="cls-26" d="M76.2,145.18c.64-.07.57,1.23.14,1.32-.78.16-.69-1.25-.14-1.32Z"/>
                    <path class="cls-7" d="M76.13,145.86c.25-.07.44.18.27.37-.24.27-.57-.28-.27-.37Z"/>
                    <path class="cls-7" d="M76.23,145.41c.2-.03.33.25.21.29-.42.14-.47-.25-.21-.29Z"/>
                  </g>
                  <g>
                    <path class="cls-28" d="M77.05,145.18c.66-.02.59,1.61-.14,1.32-.37-.15-.32-1.3.14-1.32Z"/>
                    <path class="cls-44" d="M77.09,145.41c.26,0,.27.85.04.9-.3.06-.31-.9-.04-.9Z"/>
                  </g>
                </g>
                <g>
                  <path class="cls-28" d="M84.95,145.79c.04.95-.76.93-.86.26-.14-1.01.81-1.21.86-.26Z"/>
                  <path class="cls-44" d="M84.5,145.38c.34-.05.29.93.07.96-.36.06-.35-.92-.07-.96Z"/>
                </g>
                <g>
                  <path class="cls-28" d="M85.91,145.34c.52.57-.3,1.91-.75.67-.12-.37.32-1.14.75-.67Z"/>
                  <path class="cls-44" d="M85.54,145.41c.38-.1.38.89.11.93-.31.05-.3-.88-.11-.93Z"/>
                </g>
                <g>
                  <path class="cls-26" d="M83.98,146.08c.07.93-1.34.09-.8-.06.24-.07.09.28.32.32.33.06.38-.34.18-.45-.19-.1-.68.03-.37-.58.42-.31.86.12.46.47,0,.03.2.05.21.3Z"/>
                  <path class="cls-7" d="M83.54,145.38c.26-.05.23.29.07.32-.2.03-.26-.28-.07-.32Z"/>
                </g>
                <g>
                  <path class="cls-28" d="M75.23,145.22s.25,0,.27.02c.04.05.04,1.17-.02,1.2-.25.16-.23-.21-.25-.22-.05-.03-.44.06-.48-.05-.02-.05.43-.93.48-.95Z"/>
                  <path class="cls-44" d="M75.23,145.57c.12.51-.16.48-.2.37,0-.02.19-.31.2-.37Z"/>
                </g>
              </g>
            </g>
          </g>
          <g>
            <polyline class="cls-46" points="39.7 111.8 39.7 91.9 59.6 91.9"/>
            <polyline class="cls-46" points="122.01 111.8 122.01 91.9 102.12 91.9"/>
            <polyline class="cls-46" points="39.7 154.43 39.7 174.33 59.6 174.33"/>
            <polyline class="cls-46" points="122.01 154.43 122.01 174.33 102.12 174.33"/>
          </g>
          <path class="cls-38" d="M149.05,171c-9.59,6.79-24.88,4.54-23.18-1.2,3.2-10.79,8.79-19.19,17.59-43.57"/>
          <g id="Layer_34" data-name="Layer 34">
            <g id="s4x2yN.tif">
              <g>
                <polygon class="cls-48" points="74.19 51.54 77.66 48.88 87.22 50.03 89.34 53.3 89.08 57.86 87.22 60.81 84.1 63.18 79.81 63.6 76.05 62.08 73.74 59.04 72.66 55.57 73.08 52.75 74.19 51.54"/>
                <path class="cls-25" d="M78.92,44.07c.1.49.12.82.23,1.11.08.22.28.39.43.58.18-.16.42-.28.52-.47.55-1.1,1.34-1.93,2.65-2.41-.19.53-.35.96-.49,1.4-.06.17-.12.36-.11.53.02.27.11.52.17.79.22-.1.43-.23.65-.29.49-.12.99-.2,1.48-.29.06.08.13.16.19.24-.31.24-.64.45-.91.72-.51.5-.46.7.19.97,1.59.66,3.15,1.35,4.31,2.71,1.22,1.42,1.86,3.05,2,4.9.13,1.79-.37,4.29-.97,5.23-.62.99-3.99,5.16-8.71,4.75-5.84-.51-8.38-6.32-8.6-8.06-.28-2.23.2-4.34,1.51-6.21,1.03-1.46,2.42-2.5,4.12-3.04.41-.13.45-.35.43-.67-.06-.91.42-1.61.9-2.48h0ZM88.39,55.05c0-.39.01-.73,0-1.06-.04-1.02-.75-2.11-1.56-2.22-.91-.12-1.81.02-2.52.71-.58.56-1.13,1.15-1.71,1.7-.84.8-1.74.91-2.48.28-.37-.32-.63-.76-1-1.08-.61-.53-1.19-1.19-1.91-1.48-1.63-.64-2.41-.49-2.94.81-1.21,2.96-.32,6.51,2.42,8.41,3.41,2.38,6.3,1.95,9.21-.35,1.8-1.42,2.62-3.45,2.49-5.73h0Z"/>
                <path class="cls-36" d="M79.47,56.78c.9-.42,1.89-.35,3.01.04.41.14.45.4.24.6-.54.51-1.14,1.1-1.93.96-.6-.1-1.46-.69-1.64-1.25-.04-.11.16-.27.33-.35h0Z"/>
                <path class="cls-25" d="M86.07,55.23c0,.44-.36.8-.8.8s-.8-.37-.8-.8.36-.81.8-.81.8.37.8.81ZM85.61,55.25s-.07.02-.11.02c-.18,0-.33-.14-.33-.32,0-.02,0-.03,0-.05-.15.04-.24.18-.24.33,0,.19.13.34.33.34s.33-.14.35-.32h0Z"/>
                <path class="cls-25" d="M77.66,55.23c0,.44-.36.8-.8.8s-.8-.37-.8-.8.36-.81.8-.81.8.37.8.81ZM77.2,55.25s-.07.02-.11.02c-.18,0-.33-.14-.33-.32,0-.02,0-.03,0-.05-.15.04-.24.18-.24.33,0,.19.13.34.33.34s.33-.14.35-.32h0Z"/>
              </g>
            </g>
          </g>
        </g>
      </g>
    </g>
  </g>
</svg>